<?xml version="1.0" encoding="utf-8"?>
<!-- Generator: Adobe Illustrator 22.0.1, SVG Export Plug-In . SVG Version: 6.00 Build 0)  -->
<svg version="1.1" id="레이어_1" xmlns="http://www.w3.org/2000/svg" xmlns:xlink="http://www.w3.org/1999/xlink" x="0px"
	 y="0px" viewBox="0 0 1372.1 355.5" style="enable-background:new 0 0 1372.1 355.5;" xml:space="preserve">
<style type="text/css">
	.st0{fill:#FFFFFF;}
</style>
<g>
	<path class="st0" d="M293.4,239.9H130.5c1.1,19.3,7.7,34.1,19.9,44.4s30.1,15.4,53.9,15.4c15,0,29.9-3.1,43.7-9
		c14.1-6,25.2-12.4,33.4-19.3h7.9v63.5c-14.6,6.7-29.8,11.9-45.5,15.6c-15.5,3.4-31.4,5-47.2,4.8c-44.5,0-78.6-11.1-102.4-33.4
		c-23.7-22.3-35.6-54-35.6-95.1c0-40.7,11.2-73,33.7-96.8s53.2-35.7,92.3-35.7c36.1,0,63.2,10.1,81.4,30.4s27.3,49.5,27.3,87.6
		L293.4,239.9z M222.6,193.5c-0.4-16.5-4.1-29-11.1-37.4s-17.9-12.5-32.6-12.5c-13.7,0-25,4-33.8,11.9s-13.8,20.6-14.8,38H222.6z"/>
	<path class="st0" d="M547.3,348.6H476v-25.7c-12.2,11.1-23.7,19.3-34.4,24.6c-10.7,5.3-23,7.9-36.9,7.9c-27,0-48.6-11.6-64.7-34.7
		c-16.2-23.1-24.3-54.3-24.3-93.6c0-20.9,2.7-39.5,8.2-55.7s12.9-30.1,22.4-41.6c8.8-10.9,19.9-19.6,32.6-25.6
		c11.9-5.9,25-9,38.3-9.1c13.3,0,24.2,1.6,32.7,4.7c9,3.4,17.7,7.4,26.2,12V6.8h71.3L547.3,348.6z M475.9,280.8V159.5
		c-5-2.4-10.3-4.1-15.8-5.1c-5-1-10.1-1.5-15.2-1.5c-18.7,0-32.7,6.5-42,19.5s-14,31-14,54c0,24.2,3.7,41.8,11.2,52.7
		c7.5,10.9,19.5,16.4,36.1,16.4c7-0.1,14-1.5,20.5-4.1C463.7,288.9,470.2,285.3,475.9,280.8L475.9,280.8z"/>
	<path class="st0" d="M659.4,66.8h-75.3v-60h75.3V66.8z M657.5,348.7h-71.3V101.9h71.3V348.7z"/>
	<path class="st0" d="M931.7,348.6h-82.8l-62.2-107.3l-19.2,26.3v81h-71.3V6.8h71.3v203.9l76.4-108.8H926l-79.7,106.3L931.7,348.6z"
		/>
	<path class="st0" d="M1141.7,239.9H978.9c1.1,19.3,7.7,34.1,19.9,44.4s30.1,15.4,53.9,15.4c15,0,29.9-3.1,43.7-9
		c14.1-6,25.2-12.4,33.4-19.3h7.9v63.5c-14.6,6.7-29.8,11.9-45.5,15.6c-15.5,3.4-31.4,5-47.2,4.8c-44.5,0-78.6-11.1-102.4-33.4
		c-23.7-22.3-35.6-54-35.6-95.1c0-40.7,11.2-73,33.7-96.8s53.2-35.7,92.3-35.7c36.1,0,63.2,10.1,81.4,30.4
		c18.2,20.3,27.3,49.5,27.4,87.6L1141.7,239.9z M1071,193.5c-0.4-16.5-4.1-29-11.1-37.4s-17.8-12.5-32.6-12.5
		c-13.7,0-25,4-33.8,11.9s-13.8,20.6-14.8,38H1071z"/>
	<path class="st0" d="M1313.6,346.5c-8,2.3-16.1,4-24.3,5.1c-10.4,1.4-20.9,2-31.4,1.9c-27.7,0-48.3-6.2-61.8-18.7
		s-20.3-33.8-20.3-63.9V155.5h-29.3v-53.6h29.3V31.4h71.3v70.5h66.4v53.6h-66.4v87.6c0,8.7,0.1,16.2,0.2,22.7
		c0,5.9,1.1,11.8,3.2,17.4c1.8,5.1,5.2,9.4,9.7,12.2c4.7,3,11.5,4.5,20.4,4.5c4.9-0.2,9.8-1.1,14.5-2.6c6-1.8,10.2-3.4,12.5-4.8h5.9
		L1313.6,346.5z"/>
</g>
</svg>
